# xmcd CD database file
#
# Track frame offsets:
#	150
#	14605
#	29886
#	56489
#	79567
#	107257
#	135609
#	151980
#	156728
#	164861
#	188585
#	205090
#	222506
#	255321
#	263806
#	288626
#	299563
#
# Disc length: 4386 seconds
#
# Revision: 1
# Processed by: cddbd v1.5.1PL2 Copyright (c) Steve Scherf et al.
# Submitted via: CDex 1.51
#
DISCID=03112011
DTITLE=яепцеи йсп╗ухм х оно-леуюмхйю - кЕцЕМДШ пСЯЯЙНЦН пНЙЮ
DYEAR=2000
DGENRE=Jazz
TTITLE0=рхаеряйне рюмцн
TTITLE1=яршоюм дю дшбвшмю
TTITLE2=ашкх дмх
TTITLE3=якнм х янкнбеи
TTITLE4=ме бя╗
TTITLE5=яхрсюжхъ я югхюряйхл опнкерюпхюрнл б юлепхйе
TTITLE6=пнлюмя
TTITLE7=ноепю
TTITLE8=люпьекэегю
TTITLE9=рпх яеярпш
TTITLE10=онякедмхи бюкэя
TTITLE11=бхбю, меюонкэ
TTITLE12=дбю йюохрюмю 2 - вюярэ 4
TTITLE13=дбю йюохрюмю 2 - вюярэ 5
TTITLE14=дбю йюохрюмю 2 - вюярэ 6
TTITLE15=йнлокейя меблемъелнярх - вюярэ 5
TTITLE16=бнпнаэхмше онкъ мюбяецдю
EXTD=YEAR: 2000
EXTT0=
EXTT1=
EXTT2=
EXTT3=
EXTT4=
EXTT5=
EXTT6=
EXTT7=
EXTT8=
EXTT9=
EXTT10=
EXTT11=
EXTT12=
EXTT13=
EXTT14=
EXTT15=
EXTT16=
PLAYORDER=
